<svg width="982" height="295" viewBox="0 0 982 295" fill="none" xmlns="http://www.w3.org/2000/svg">
<path fill-rule="evenodd" clip-rule="evenodd" d="M145 239.997C127.303 239.997 109.996 234.744 95.1993 224.891C94.9597 224.731 94.7207 224.571 94.4823 224.409C79.7081 214.367 68.1539 200.144 61.2414 183.503C61.2053 183.416 61.1694 183.329 61.1335 183.242C61.1049 183.173 61.0763 183.103 61.0478 183.034C61.0292 182.988 61.0107 182.943 60.9922 182.897C54.1099 165.996 52.3092 147.397 55.8178 129.455C55.8404 129.339 55.8633 129.223 55.8863 129.107C59.4383 111.299 68.0686 94.9471 80.7032 82.0946C80.9212 81.8729 81.1401 81.6524 81.3601 81.4332C93.9757 68.8582 109.924 60.288 127.261 56.7801C127.327 56.7667 127.394 56.7533 127.46 56.74C127.511 56.7298 127.562 56.7196 127.613 56.7095C144.926 53.2786 162.845 55.0445 179.185 61.7885C179.389 61.8728 179.593 61.9579 179.797 62.0438C196.151 68.9345 210.166 80.5285 220.131 95.396C220.29 95.6336 220.448 95.8721 220.605 96.1114C230.597 111.322 235.93 129.206 235.93 147.5H235.93V178L290 278V147.5V147H289.999C289.933 127.141 285.927 107.594 278.32 89.5001C274.929 81.4355 270.823 73.6593 266.032 66.2723C265.877 66.0323 265.72 65.7927 265.563 65.5535C249.753 41.4837 227.332 22.6828 201.1 11.4868C200.896 11.4 200.693 11.3137 200.489 11.2278C173.994 0.0639094 144.839 -2.85708 116.712 2.83424C116.594 2.85801 116.477 2.88193 116.36 2.906C88.369 8.64304 62.6635 22.6597 42.4696 43.2018C42.2517 43.4235 42.0346 43.6457 41.8182 43.8687C21.8952 64.3951 8.32094 90.4195 2.7862 118.724C2.76356 118.84 2.74105 118.956 2.71868 119.072C-2.7438 147.362 0.0641205 176.658 10.7918 203.338C10.8732 203.541 10.9552 203.744 11.0375 203.946C21.9026 230.629 40.2266 253.474 63.7292 269.654C63.8265 269.721 63.9238 269.788 64.0213 269.855C64.1615 269.951 64.3018 270.046 64.4424 270.142C71.6148 275.017 79.1661 279.208 87.0001 282.686C104.908 290.636 124.292 294.858 144 294.997V295H145H174.5C189.688 295 202 282.688 202 267.5C202 252.312 189.688 240 174.5 240H145V239.997Z" fill="url(#paint0_linear)"/>
<path d="M253 273.5C253 273.5 253.5 258 248 246.5C242.5 235 228 219 197.5 206C167 193 153.5 186.5 130.5 174C107.5 161.5 97 144.5 97 144.5C97 144.5 125.888 171.921 170.5 185.5C215.112 199.079 236.5 203.5 253 215C243.5 205 236 201.5 227.5 193C219 184.5 216 171 216 171C216 171 215 185 220 193.5C181.5 188 174 156.5 174 156.5L182.5 183.5C145 179.5 136.5 151 136.5 151L142.5 171C87 142 76 110 76 110C76 110 91 136 152.5 131C214 126 240.5 146 257.5 168C274.5 190 266.5 225.5 266.5 225.5C292 249 290 273.5 290 273.5V276C290 286.217 281.717 294.5 271.5 294.5C261.283 294.5 253 286.217 253 276V273.5Z" fill="url(#paint1_linear)"/>
<path fill-rule="evenodd" clip-rule="evenodd" d="M376.398 277.798L376.438 277.822L376.479 277.845C391.086 286.192 407.592 290.312 425.864 290.312C450.609 290.312 471.547 282.596 488.31 266.996L488.376 266.935L488.439 266.872C492.388 262.923 494.447 258.08 493.808 252.599C493.194 247.118 490.284 242.524 485.811 238.832C481.947 235.575 477.346 234.184 472.329 234.738C467.417 235.061 462.888 237.103 458.791 240.431L458.767 240.451L458.743 240.471C450.66 247.207 439.857 250.792 425.864 250.792C415.073 250.792 405.831 248.362 397.971 243.656C389.994 238.661 383.719 231.995 379.104 223.583C374.731 215.218 372.48 205.551 372.48 194.456C372.48 176.855 377.421 163.309 386.865 153.275L386.882 153.257L386.898 153.239C396.358 142.991 408.645 137.792 424.224 137.792C438.843 137.792 450.854 142.933 460.601 153.277L460.652 153.331L460.704 153.384C464.333 157.012 468.524 159.504 473.263 160.619L473.4 160.651L473.539 160.676C478.573 161.564 483.324 160.495 487.482 157.525L487.493 157.517L487.503 157.509C492.143 154.159 495.441 149.94 496.659 144.761C497.985 139.128 496.141 133.922 492.283 129.509C474.289 108.751 451.489 98.272 424.224 98.272C406.172 98.272 389.978 102.392 375.79 110.758C361.653 118.875 350.524 130.254 342.445 144.796C334.33 159.403 330.336 176.001 330.336 194.456C330.336 212.497 334.34 228.872 342.445 243.46L342.468 243.502L342.492 243.543C350.793 257.84 362.117 269.275 376.398 277.798ZM522.769 283.148L522.887 283.274L523.013 283.391C527.289 287.383 532.583 289.328 538.56 289.328C544.684 289.328 550.081 287.423 554.232 283.272L554.293 283.211L554.351 283.148C558.343 278.871 560.288 273.577 560.288 267.6V175.104C560.288 167.973 562.196 161.9 565.917 156.69L565.941 156.657L565.964 156.623C569.821 151.03 575.055 146.539 581.796 143.168C588.466 139.833 595.998 138.12 604.488 138.12C618.303 138.12 629.425 142.15 638.23 149.977L638.274 150.016L638.319 150.054C646.854 157.291 651.64 169.169 651.64 186.912V267.6C651.64 273.577 653.585 278.871 657.577 283.148L657.695 283.274L657.821 283.391C662.097 287.383 667.391 289.328 673.368 289.328C679.343 289.328 684.604 287.379 688.712 283.272C692.967 279.016 695.096 273.682 695.096 267.6V186.912C695.096 168.146 691.481 151.955 683.977 138.574C676.759 125.314 666.678 115.203 653.773 108.387C641.15 101.385 626.865 97.944 611.048 97.944C599.295 97.944 588.26 100.021 577.995 104.22C571.515 106.871 565.606 110.148 560.288 114.058V44.56C560.288 38.4364 558.383 33.0396 554.232 28.8885C550.081 24.7374 544.684 22.832 538.56 22.832C532.583 22.832 527.289 24.7773 523.013 28.7688L522.95 28.8276L522.889 28.8885C518.738 33.0396 516.832 38.4364 516.832 44.56V267.6C516.832 273.577 518.777 278.871 522.769 283.148ZM730.267 282.82L730.385 282.946L730.511 283.063C734.788 287.055 740.082 289 746.059 289C752.182 289 757.579 287.095 761.73 282.944L761.791 282.883L761.85 282.82C765.841 278.543 767.787 273.249 767.787 267.272V121.312C767.787 115.188 765.881 109.792 761.73 105.64C757.579 101.489 752.182 99.584 746.059 99.584C740.082 99.584 734.788 101.529 730.511 105.521L730.448 105.58L730.387 105.64C726.236 109.792 724.331 115.188 724.331 121.312V267.272C724.331 273.249 726.276 278.543 730.267 282.82ZM727.018 72.6038L727.106 72.6967L727.199 72.785C732.479 77.8012 738.842 80.392 746.059 80.392C753.281 80.392 759.585 77.793 764.682 72.6956C769.943 67.4342 772.707 61.0427 772.707 53.744C772.707 46.4786 769.965 40.18 764.683 35.1195C759.623 29.8376 753.324 27.096 746.059 27.096C738.76 27.096 732.368 29.8591 727.107 35.1205C722.01 40.2179 719.411 46.5212 719.411 53.744C719.411 60.9604 722.001 67.3236 727.018 72.6038ZM834.474 277.719L834.5 277.736L834.526 277.752C848.056 286.15 863.304 290.312 880.131 290.312C893.732 290.312 906.301 287.54 917.754 281.93L917.773 281.921L917.791 281.912C925.417 278.099 932.303 273.419 938.437 267.875C938.495 273.739 940.442 278.937 944.372 283.148L944.49 283.274L944.616 283.391C948.892 287.383 954.186 289.328 960.163 289.328C966.138 289.328 971.399 287.379 975.507 283.272C979.762 279.016 981.891 273.682 981.891 267.6V194.456C981.891 176.378 977.65 159.976 969.084 145.378C960.786 130.865 949.456 119.413 935.146 111.098C920.759 102.519 904.563 98.272 886.691 98.272C868.812 98.272 852.516 102.522 837.923 111.089C823.611 119.402 812.176 130.847 803.66 145.348L803.645 145.374L803.63 145.399C795.288 159.997 791.163 176.391 791.163 194.456C791.163 212.448 794.927 228.784 802.558 243.352L802.58 243.394L802.603 243.436C810.43 257.709 821.063 269.164 834.474 277.719ZM932.794 165.326L932.806 165.348L932.818 165.37C937.395 173.727 939.747 183.379 939.747 194.456C939.747 205.286 937.406 214.954 932.806 223.564C928.19 231.985 921.911 238.658 913.926 243.657C906.038 248.38 897.007 250.792 886.691 250.792C876.623 250.792 867.573 248.393 859.431 243.641C851.452 238.64 845.06 231.96 840.228 223.525C835.641 214.925 833.307 205.27 833.307 194.456C833.307 183.385 835.657 173.738 840.229 165.384C845.074 156.71 851.467 150.049 859.416 145.28L859.431 145.27L859.446 145.261C867.594 140.293 876.636 137.792 886.691 137.792C896.985 137.792 906.002 140.302 913.889 145.232L913.928 145.256L913.967 145.28C921.902 150.041 928.171 156.683 932.794 165.326Z" fill="white"/>
<defs>
<linearGradient id="paint0_linear" x1="27" y1="35.5" x2="290" y2="248.5" gradientUnits="userSpaceOnUse">
<stop stop-color="#B8EF8E"/>
<stop offset="0.722901" stop-color="#39AA11"/>
<stop offset="1" stop-color="#065A29"/>
</linearGradient>
<linearGradient id="paint1_linear" x1="113.5" y1="110" x2="273.5" y2="295" gradientUnits="userSpaceOnUse">
<stop stop-color="#28900E"/>
<stop offset="1" stop-color="#94FB43"/>
</linearGradient>
</defs>
</svg>
